<svg width="431" height="275" viewBox="0 0 431 275" fill="none" xmlns="http://www.w3.org/2000/svg">
<g id="city">
<path id="Vector" d="M219.921 274.906C328.438 274.906 416.408 266.719 416.408 256.62C416.408 246.521 328.438 238.334 219.921 238.334C111.404 238.334 23.4333 246.521 23.4333 256.62C23.4333 266.719 111.404 274.906 219.921 274.906Z" fill="#3F3D56"/>
<path id="Vector_2" opacity="0.1" d="M210.322 265.203C311.251 265.203 393.07 261.36 393.07 256.62C393.07 251.88 311.251 248.037 210.322 248.037C109.393 248.037 27.5739 251.88 27.5739 256.62C27.5739 261.36 109.393 265.203 210.322 265.203Z" fill="black"/>
<path id="Vector_3" d="M311.421 11.7198V32.2349H284.481V255.967H340.703V40.751V32.2349V11.7198H311.421Z" fill="#575A89"/>
<path id="Vector_4" d="M163.058 149.52V114.296H128.701V149.52H115.817V256.354H175.552V149.52H163.058Z" fill="#575A89"/>
<path id="Vector_5" d="M168.915 206.808H122.454V256.741H168.915V206.808Z" fill="#3F3D56"/>
<path id="Vector_6" opacity="0.1" d="M129.872 206.808H122.454V256.741H129.872V206.808Z" fill="black"/>
<path id="Vector_7" d="M264.57 0.494349V12.4938H195.854V0.494349H175.552V256.741H284.482V0.494349H264.57Z" fill="#3F3D56"/>
<path id="Vector_8" opacity="0.1" d="M279.796 0.494535H264.57V12.494H279.796V0.494535Z" fill="black"/>
<path id="Vector_9" opacity="0.1" d="M190.778 0.494535H175.552V256.741H190.778V0.494535Z" fill="black"/>
<path id="Vector_10" d="M97.8571 73.6525V63.9754H87.706V73.6525H69.3555V256.741H115.817V73.6525H97.8571Z" fill="#3F3D56"/>
<path id="Vector_11" opacity="0.1" d="M93.1717 63.9755H87.7057V73.6525H93.1717V63.9755Z" fill="black"/>
<path id="Vector_12" opacity="0.1" d="M74.8217 73.6525H69.3557V256.741H74.8217V73.6525Z" fill="black"/>
<path id="Vector_13" opacity="0.1" d="M279.796 99.1997H264.57V256.741H279.796V99.1997Z" fill="black"/>
<path id="Vector_14" opacity="0.1" d="M115.817 73.6525H101.761V107.328H115.817V73.6525Z" fill="black"/>
<path id="Vector_15" d="M214.204 33.0092H192.34V42.2991H214.204V33.0092Z" fill="#FF6584"/>
<path id="Vector_16" d="M260.665 128.618H238.801V137.908H260.665V128.618Z" fill="#FF6584"/>
<path id="Vector_17" d="M214.204 195.582H192.34V204.872H214.204V195.582Z" fill="#FF6584"/>
<path id="Vector_18" d="M103.713 115.457H81.8492V124.747H103.713V115.457Z" fill="#FF6584"/>
<path id="Vector_19" d="M156.811 212.227H134.948V221.517H156.811V212.227Z" fill="#FF6584"/>
<path id="Vector_20" opacity="0.1" d="M164.62 157.649H127.139V173.132H164.62V157.649Z" fill="black"/>
<path id="Vector_21" opacity="0.1" d="M328.599 50.0407H291.118V65.5239H328.599V50.0407Z" fill="black"/>
<path id="Vector_22" opacity="0.1" d="M328.599 82.9424H291.118V98.4256H328.599V82.9424Z" fill="black"/>
<path id="Vector_23" opacity="0.1" d="M328.599 115.844H291.118V131.327H328.599V115.844Z" fill="black"/>
<path id="Vector_24" opacity="0.1" d="M328.599 148.746H291.118V164.229H328.599V148.746Z" fill="black"/>
<path id="Vector_25" opacity="0.1" d="M328.599 181.648H291.118V197.131H328.599V181.648Z" fill="black"/>
<path id="Vector_26" opacity="0.1" d="M328.599 214.549H291.118V230.033H328.599V214.549Z" fill="black"/>
<path id="Vector_27" d="M353.587 120.102V77.9103H326.257V120.102H316.496V256.741H362.958V120.102H353.587Z" fill="#3F3D56"/>
<path id="Vector_28" opacity="0.1" d="M334.846 77.9104H326.257V120.102H334.846V77.9104Z" fill="black"/>
<path id="Vector_29" opacity="0.1" d="M325.086 120.102H316.496V256.741H325.086V120.102Z" fill="black"/>
<path id="Vector_30" opacity="0.1" d="M362.957 188.615H339.922V202.163H362.957V188.615Z" fill="black"/>
<path id="Vector_31" d="M362.567 168.487H340.703V177.777H362.567V168.487Z" fill="#FF6584"/>
<path id="Vector_32" d="M431 177.866C431 212.351 410.322 224.392 384.814 224.392C359.306 224.392 338.627 212.351 338.627 177.866C338.627 143.38 384.814 99.5094 384.814 99.5094C384.814 99.5094 431 143.38 431 177.866Z" fill="#EFEFEF"/>
<path id="Vector_33" d="M383.131 219.117L383.604 190.255L403.29 154.55L383.678 185.728L383.891 172.751L397.458 146.918L383.947 169.317L384.33 145.977L398.858 125.411L384.389 142.307L384.629 99.5092L383.127 156.165L383.25 153.828L368.479 131.412L383.013 158.315L381.637 184.382L381.596 183.69L364.568 160.1L381.545 186.134L381.372 189.394L381.341 189.442L381.356 189.71L377.864 255.844H382.529L383.089 221.684L400.024 195.715L383.131 219.117Z" fill="#3F3D56"/>
<path id="Vector_34" d="M92.5029 178.239C92.5029 212.724 71.8246 224.765 46.3166 224.765C20.8086 224.765 0.130249 212.724 0.130249 178.239C0.130249 143.753 46.3166 99.8826 46.3166 99.8826C46.3166 99.8826 92.5029 143.753 92.5029 178.239Z" fill="#EFEFEF"/>
<path id="Vector_35" d="M44.634 219.49L45.1068 190.629L64.7929 154.923L45.1814 186.101L45.3938 173.124L58.9609 147.292L45.4503 169.69V169.69L45.8326 146.35L60.3609 125.784L45.8928 142.68L46.1319 99.8824L44.6297 156.538L44.7532 154.201L29.9822 131.786L44.5163 158.688L43.1403 184.754L43.0993 184.063L26.0709 160.474L43.0476 186.507L42.8756 189.767L42.8447 189.816L42.8586 190.083L39.367 256.217H44.0322L44.5919 222.058L61.5271 196.089L44.634 219.49Z" fill="#3F3D56"/>
</g>
</svg>
