<svg width="461" height="315" viewBox="0 0 461 315" fill="none" xmlns="http://www.w3.org/2000/svg">
<g id="undraw_Country_side_k696 1" clip-path="url(#clip0)">
<path id="Vector" opacity="0.1" d="M377.516 172.864C364.967 188.818 369.842 212.124 377.816 230.79C380.486 237.039 383.506 243.651 382.379 250.353C381.002 258.548 373.687 264.541 366.008 267.717C352.008 273.506 335.256 272.126 322.392 264.124C311.276 257.209 303.315 245.963 292.008 239.362C273.088 228.316 249.004 232.488 228.458 240.097C213.923 245.48 198.031 252.481 183.588 246.855C173.425 242.896 166.4 233.261 162.572 223.048C160.724 218.118 159.383 212.78 155.854 208.872C153.756 206.548 151.018 204.899 148.213 203.508C122.601 190.81 90.2526 197.61 65.3756 183.525C48.5745 174.013 37.8185 156.07 33.0561 137.36C28.2937 118.65 28.8484 99.031 30.0576 79.7623C30.9169 66.0688 32.4586 51.4497 41.2083 40.8812C50.4644 29.7011 66.3497 25.5439 80.7079 27.6689C95.0661 29.7939 108.081 37.3676 119.53 46.2882C133.84 57.437 147.11 71.3199 164.679 75.836C176.644 78.9115 189.23 77.2292 201.57 76.6466C222.199 75.6727 242.837 77.8386 263.353 80.2102C282.993 82.4806 302.775 84.9795 321.485 91.3683C334.726 95.8896 345.341 104.097 357.844 109.83C365.994 113.568 374.881 114.6 382.597 119.36C392.102 125.224 400.816 135.423 398.381 147.358C396.065 158.705 384.176 164.397 377.516 172.864Z" fill="#EFEFEF"/>
<path id="Vector_2" opacity="0.1" d="M9.35547 212.09C9.35547 212.09 81.5156 193.164 174.969 241.269C268.422 289.375 370.551 203.416 368.579 190.404C366.607 177.391 436.402 190.404 436.402 190.404V306.724H9.35547V212.09Z" fill="#EFEFEF"/>
<path id="Vector_3" d="M59.584 39.2222C70.4152 39.2222 79.1956 30.442 79.1956 19.6111C79.1956 8.78019 70.4152 0 59.584 0C48.7528 0 39.9724 8.78019 39.9724 19.6111C39.9724 30.442 48.7528 39.2222 59.584 39.2222Z" fill="#FFDF9C"/>
<path id="Vector_4" d="M197.144 100.207L193.95 120.075C193.95 120.075 189.957 133.189 190.356 139.547C190.755 145.905 190.356 154.647 190.356 154.647C190.356 154.647 180.773 172.132 188.759 179.284C196.745 186.437 199.14 156.634 199.14 156.634C199.14 156.634 197.942 143.918 200.737 137.163C203.532 130.407 203.932 115.704 203.932 115.704L197.144 100.207Z" fill="#FFCDD3"/>
<path id="Vector_5" opacity="0.05" d="M197.144 100.207L193.95 120.075C193.95 120.075 189.957 133.189 190.356 139.547C190.755 145.905 190.356 154.647 190.356 154.647C190.356 154.647 180.773 172.132 188.759 179.284C196.745 186.437 199.14 156.634 199.14 156.634C199.14 156.634 197.942 143.918 200.737 137.163C203.532 130.407 203.932 115.704 203.932 115.704L197.144 100.207Z" fill="black"/>
<path id="Vector_6" d="M243.926 168.53L249.45 189.219L254.64 213.459C254.64 213.459 257.435 218.625 254.64 229.354L263.824 259.157C263.824 259.157 269.015 278.231 272.209 278.628C275.403 279.026 269.015 293.728 269.015 293.728L260.23 288.563C260.23 288.563 257.835 276.641 254.64 273.86C251.446 271.078 241.065 243.262 241.065 243.262L237.871 223.79C237.871 223.79 227.889 197.166 219.104 190.808C210.32 184.45 207.525 174.119 207.525 174.119L243.926 168.53Z" fill="#FFCDD3"/>
<path id="Vector_7" opacity="0.05" d="M207.525 174.119C207.525 174.119 210.32 184.45 219.104 190.808C227.889 197.166 237.871 223.79 237.871 223.79L241.065 243.262C241.065 243.262 251.446 271.078 254.64 273.86C256.984 275.902 258.901 282.868 259.751 286.429C260.063 287.72 260.23 288.563 260.23 288.563L269.015 293.728C269.015 293.728 275.403 279.026 272.209 278.628C271.714 278.569 271.171 278.056 270.604 277.237C267.529 272.779 263.824 259.157 263.824 259.157L254.64 229.354C257.435 218.625 254.64 213.459 254.64 213.459L249.45 189.219L243.928 168.531L207.525 174.119Z" fill="black"/>
<path id="Vector_8" d="M156.417 277.436L159.611 284.986L173.985 283.397C173.543 281.345 173.297 279.256 173.251 277.158C173.123 272.648 173.818 266.56 177.579 261.938C184.367 253.594 194.748 232.93 194.748 232.93C194.748 232.93 205.129 221.804 207.525 217.432L227.513 184.065L226.89 181.073L232.281 176.105H198.741L190.755 207.101L184.367 219.817C184.367 219.817 170.791 231.341 165.6 255.58C165.6 255.58 160.422 271.73 157.124 276.55C156.918 276.868 156.681 277.165 156.417 277.436V277.436Z" fill="#FFCDD3"/>
<path id="Vector_9" opacity="0.1" d="M259.751 286.429C260.063 287.72 260.23 288.563 260.23 288.563L269.015 293.728C269.015 293.728 275.403 279.026 272.209 278.628C271.714 278.569 271.171 278.056 270.604 277.237C270.189 277.485 269.865 277.859 269.681 278.305C269.497 278.752 269.462 279.245 269.581 279.713C269.707 280.307 269.919 280.879 270.212 281.41C271.41 283.397 266.22 286.576 266.22 286.576C264.471 288.813 261.632 287.633 259.751 286.429Z" fill="black"/>
<path id="Vector_10" d="M269.981 280.507C269.433 278.215 272.313 276.679 273.93 278.399C274.342 278.83 274.702 279.307 275.004 279.82C276.601 282.602 288.579 284.986 290.975 284.191C293.371 283.397 301.756 282.602 299.759 288.563C297.763 294.523 261.827 303.266 261.827 303.266C261.827 303.266 257.835 297.702 258.234 293.729C258.466 291.084 258.466 288.425 258.234 285.781C258.234 285.781 263.824 290.947 266.619 287.37C266.619 287.37 271.809 284.191 270.612 282.205C270.319 281.673 270.106 281.101 269.981 280.507V280.507Z" fill="#DCE6F2"/>
<path id="Vector_11" opacity="0.1" d="M156.417 277.436L159.611 284.986L173.985 283.397C173.543 281.345 173.297 279.256 173.251 277.158C173.108 276.873 172.899 276.627 172.64 276.441C172.382 276.255 172.082 276.135 171.767 276.09C171.452 276.045 171.131 276.077 170.831 276.183C170.531 276.29 170.261 276.467 170.045 276.701C169.302 277.496 168.551 278.334 167.996 279.026C166.399 281.012 161.208 279.82 161.208 279.82C159.863 280.265 158.266 278.334 157.124 276.55C156.918 276.868 156.681 277.165 156.417 277.436V277.436Z" fill="black"/>
<path id="Vector_12" d="M169.644 277.496C169.882 277.238 170.186 277.048 170.523 276.947C170.859 276.846 171.217 276.837 171.558 276.921C171.9 277.005 172.212 277.18 172.463 277.426C172.715 277.672 172.895 277.981 172.986 278.32C173.712 281.146 175.306 284.797 178.777 286.178C184.766 288.563 193.151 292.536 190.356 296.113C187.561 299.689 177.978 302.868 169.593 300.086C161.208 297.305 149.23 290.549 149.23 290.549L155.219 274.654C155.219 274.654 158.413 281.41 160.809 280.615C160.809 280.615 166 281.807 167.597 279.82C168.153 279.129 168.903 278.292 169.644 277.496Z" fill="#DCE6F2"/>
<path id="Vector_13" d="M223.896 54.1112C223.896 54.1112 214.313 67.2246 216.709 76.3642C219.104 85.5038 197.543 70.4036 197.543 70.4036C197.543 70.4036 208.723 60.4692 206.726 44.1768L223.896 54.1112Z" fill="#FFCDD3"/>
<path id="Vector_14" d="M192.352 178.49C208.324 188.027 227.489 184.053 227.489 184.053L227.09 181.271C227.369 181.299 227.649 181.327 227.92 181.351C243.185 182.694 246.655 178.092 246.655 178.092C244.267 171.412 242.394 157.25 241.229 146.302C241.061 144.729 240.909 143.223 240.769 141.812C240.454 138.621 240.218 135.935 240.067 134.119C239.935 132.521 239.867 131.599 239.867 131.599L238.27 119.678C238.27 119.678 233.878 105.373 235.874 95.8356C237.575 87.7129 232.034 84.7788 230.353 84.0871C230.089 83.9858 229.818 83.9055 229.541 83.8472C227.351 83.3305 224.912 81.1023 222.838 78.7126C219.813 75.2649 215.958 72.6469 211.638 71.1069C209.629 70.3797 207.924 69.6088 207.924 69.6088C205.129 66.4298 197.543 68.4167 197.543 68.4167C188.36 74.3773 193.151 93.8487 193.151 93.8487L196.968 104.705C199.096 110.749 202.127 116.408 205.625 121.784C211.494 130.797 203.532 143.123 203.532 143.123C191.155 153.058 192.352 178.49 192.352 178.49Z" fill="#FF8AA1"/>
<path id="Vector_15" opacity="0.05" d="M226.491 160.012L227.92 181.351C243.185 182.694 246.655 178.092 246.655 178.092C244.267 171.412 242.394 157.25 241.228 146.302C241.061 144.729 240.909 143.223 240.769 141.812L226.491 160.012Z" fill="black"/>
<path id="Vector_16" opacity="0.1" d="M201.137 104.18C201.137 104.18 208.324 117.691 210.719 123.652C213.115 129.612 213.115 127.626 214.313 129.612C215.511 131.599 228.288 140.342 228.288 140.342L241.228 146.302C240.682 141.168 240.286 136.737 240.067 134.119L227.889 126.036C227.889 126.036 219.504 120.87 219.104 114.115C218.705 107.359 213.514 95.0408 213.514 95.0408C213.514 95.0408 203.133 83.9143 198.741 89.0802C194.349 94.2461 201.137 104.18 201.137 104.18Z" fill="black"/>
<path id="Vector_17" d="M213.514 93.0539C213.514 93.0539 218.705 105.373 219.104 112.128C219.504 118.883 227.889 124.049 227.889 124.049L254.241 141.534C254.241 141.534 277 149.084 269.414 157.826C261.827 166.568 249.849 148.289 249.849 148.289L228.288 138.355C228.288 138.355 215.511 129.612 214.313 127.626C213.115 125.639 213.115 127.626 210.719 121.665C208.324 115.704 201.137 102.194 201.137 102.194C201.137 102.194 194.349 92.2592 198.741 87.0933C203.133 81.9274 213.514 93.0539 213.514 93.0539Z" fill="#FFCDD3"/>
<path id="Vector_18" opacity="0.1" d="M216.709 98.2198C216.709 98.2198 208.723 92.2592 207.126 90.2723C206.421 89.3952 205.327 89.5248 204.324 89.9433C202.454 90.7408 200.419 91.0752 198.391 90.918C196.645 90.769 194.948 90.8684 195.147 91.8618C195.547 93.8487 193.949 81.5301 193.949 81.5301L200.737 79.1458L209.521 83.9143L216.709 98.2198Z" fill="black"/>
<path id="Vector_19" d="M216.709 97.4251C216.709 97.4251 208.723 91.4644 207.126 89.4776C206.421 88.6004 205.327 88.7301 204.324 89.1485C202.454 89.9461 200.419 90.2805 198.391 90.1233C196.645 89.9743 194.948 90.0736 195.147 91.0671C195.547 93.0539 193.949 80.7353 193.949 80.7353L200.737 78.3511L209.521 83.1196L216.709 97.4251Z" fill="#FF8AA1"/>
<path id="Vector_20" opacity="0.1" d="M235.512 98.2198C234.07 98.849 232.499 99.1232 230.929 99.0195C229.359 98.9158 227.837 98.4372 226.491 97.6237" fill="black"/>
<path id="Vector_21" opacity="0.1" d="M209.322 45.1702C209.621 42.7948 206.665 47.7283 206.327 44.9715L223.497 54.9059C223.497 54.9059 222.517 56.2491 221.263 58.3699C220.613 58.4437 219.959 58.4813 219.304 58.4823C214.138 58.4823 212.503 48.7324 209.322 45.1702Z" fill="black"/>
<path id="Vector_22" d="M219.703 57.6875C229.296 57.6875 237.072 49.9484 237.072 40.4017C237.072 30.855 229.296 23.1159 219.703 23.1159C210.111 23.1159 202.334 30.855 202.334 40.4017C202.334 49.9484 210.111 57.6875 219.703 57.6875Z" fill="#FFCDD3"/>
<path id="Vector_23" opacity="0.1" d="M227.496 40.7035C227.365 41.7886 227.39 42.9358 226.871 43.8991C226.145 45.2479 224.579 45.8615 223.27 46.6641C217.964 49.917 216.39 57.2356 218.081 63.2049C218.679 65.3172 219.622 67.4609 219.231 69.6206C218.557 73.3321 214.309 75.2561 210.534 75.5857C206.759 75.9154 202.807 75.3064 199.276 76.6771C193.347 78.9791 190.736 85.9003 185.695 89.7682C179.833 94.267 171.758 93.9884 164.373 94.509C161.643 94.7014 158.873 95.0286 156.191 94.485C153.508 93.9415 150.862 92.3322 149.915 89.7766C148.578 86.1707 151.012 82.2608 153.84 79.6433C156.668 77.0257 160.12 74.8173 161.721 71.3197C163.873 66.6181 162.133 60.6798 164.84 56.2716C165.333 55.3771 166.107 54.6706 167.042 54.2621C168.235 53.8164 169.558 54.1243 170.831 54.1679C175.762 54.3366 179.967 50.422 182.257 46.0728C184.548 41.7235 185.521 36.8006 187.615 32.3546C189.986 27.3231 193.935 22.8827 199.07 20.6989C202.078 19.4194 205.361 18.9495 208.502 18.0392C212.071 17.0044 215.479 15.3938 219.136 14.7231C222.793 14.0525 226.935 14.4951 229.609 17.0669C232.125 19.4874 232.859 23.2855 235.264 25.8153C236.173 26.7715 237.341 27.5802 237.778 28.8225C238.815 31.7655 233.786 32.0138 232.108 33.1921C230.862 34.0573 229.809 35.1715 229.015 36.4644C228.221 37.7573 227.704 39.2007 227.496 40.7035V40.7035Z" fill="black"/>
<path id="Vector_24" d="M226.697 40.3061C226.567 41.3912 226.591 42.5384 226.073 43.5017C225.346 44.8505 223.78 45.4641 222.471 46.2667C217.165 49.5196 215.592 56.8382 217.282 62.8075C217.88 64.9198 218.824 67.0635 218.432 69.2232C217.758 72.9347 213.511 74.8588 209.735 75.1884C205.96 75.518 202.008 74.909 198.478 76.2797C192.548 78.5817 189.937 85.503 184.897 89.3709C179.034 93.8696 170.959 93.591 163.575 94.1116C160.845 94.3041 158.074 94.6312 155.392 94.0877C152.71 93.5441 150.063 91.9349 149.116 89.3792C147.779 85.7734 150.214 81.8634 153.042 79.2459C155.87 76.6284 159.321 74.42 160.922 70.9223C163.074 66.2208 161.334 60.2825 164.042 55.8742C164.534 54.9798 165.308 54.2733 166.244 53.8647C167.436 53.419 168.759 53.727 170.032 53.7705C174.963 53.9392 179.168 50.0246 181.459 45.6754C183.749 41.3262 184.722 36.4033 186.817 31.9573C189.187 26.9257 193.137 22.4854 198.271 20.3015C201.279 19.0221 204.562 18.5522 207.703 17.6419C211.273 16.6071 214.681 14.9964 218.338 14.3258C221.994 13.6551 226.137 14.0978 228.81 16.6695C231.327 19.0901 232.06 22.8882 234.466 25.418C235.375 26.3742 236.542 27.1829 236.98 28.4252C238.016 31.3682 232.987 31.6164 231.31 32.7947C230.063 33.66 229.01 34.7742 228.216 36.067C227.422 37.3599 226.905 38.8033 226.697 40.3061V40.3061Z" fill="#EFEFEF"/>
<path id="Vector_25" d="M23.748 306.922C23.748 306.922 10.7355 283.657 26.9025 265.125C43.0696 246.592 61.9968 256.844 61.9968 256.844C61.9968 256.844 85.6559 267.885 80.1354 294.304C80.1354 294.304 76.9809 307.71 67.5173 306.922H23.748Z" fill="#EFEFEF"/>
<path id="Vector_26" opacity="0.2" d="M23.748 306.922C23.748 306.922 10.7355 283.657 26.9025 265.125C43.0696 246.592 61.9968 256.844 61.9968 256.844C61.9968 256.844 85.6559 267.885 80.1354 294.304C80.1354 294.304 76.9809 307.71 67.5173 306.922H23.748Z" fill="white"/>
<path id="Vector_27" d="M44.1868 306.955L58.4479 263.548" stroke="#535461" stroke-miterlimit="10"/>
<path id="Vector_28" d="M71.4604 270.251C71.4604 270.251 64.118 266.796 56.7483 268.721C56.7483 268.721 52.9274 259.21 44.2524 257.633" stroke="#535461" stroke-miterlimit="10"/>
<path id="Vector_29" d="M75.0094 285.235C75.0094 285.235 62.5239 276.211 53.3882 278.948C53.3882 278.948 43.0696 266.702 35.9719 267.491" stroke="#535461" stroke-miterlimit="10"/>
<path id="Vector_30" d="M72.249 301.401C72.249 301.401 61.5775 293.684 48.3803 294.191C48.3803 294.191 38.3377 282.08 28.874 281.292" stroke="#535461" stroke-miterlimit="10"/>
<path id="Vector_31" d="M49.8838 306.955C48.2479 306.183 46.541 305.571 44.787 305.129C44.787 305.129 36.5634 294.435 20.1006 297.918" stroke="#535461" stroke-miterlimit="10"/>
<path id="Vector_32" d="M164.52 306.922C164.52 306.922 177.532 285.629 145.198 254.084C112.864 222.54 114.835 216.625 117.596 211.893C117.596 211.893 91.5707 215.048 97.0912 254.084C102.612 293.121 126.271 306.922 126.271 306.922H164.52Z" fill="#EFEFEF"/>
<path id="Vector_33" d="M146.184 306.922C146.184 306.922 136.523 278.926 121.933 261.97C107.343 245.015 110.104 217.019 117.596 211.893" stroke="#535461" stroke-width="2" stroke-miterlimit="10"/>
<path id="Vector_34" d="M377.538 54.7188C371.727 60.6155 371.345 69.6611 371.345 69.6611C371.345 69.6611 380.385 69.1462 386.195 63.2495C392.006 57.3528 392.388 48.3072 392.388 48.3072C392.388 48.3072 383.349 48.8221 377.538 54.7188Z" fill="#EFEFEF"/>
<path id="Vector_35" d="M31.7217 144.621C25.9108 150.518 25.5288 159.563 25.5288 159.563C25.5288 159.563 34.568 159.048 40.3788 153.152C46.1896 147.255 46.5716 138.209 46.5716 138.209C46.5716 138.209 37.5325 138.724 31.7217 144.621Z" fill="#FC6681"/>
<path id="Vector_36" d="M355.457 163.942C349.646 169.839 349.264 178.884 349.264 178.884C349.264 178.884 358.303 178.37 364.114 172.473C369.925 166.576 370.307 157.531 370.307 157.531C370.307 157.531 361.268 158.045 355.457 163.942Z" fill="#EFEFEF"/>
<path id="Vector_37" d="M70.6949 157.461C63.0379 154.313 54.52 157.382 54.52 157.382C54.52 157.382 58.4167 165.554 66.0737 168.702C73.7308 171.85 82.2486 168.781 82.2486 168.781C82.2486 168.781 78.352 160.609 70.6949 157.461Z" fill="#EFEFEF"/>
<path id="Vector_38" d="M166.973 145.638C162.547 138.641 153.824 136.219 153.824 136.219C153.824 136.219 152.276 145.139 156.702 152.135C161.128 159.131 169.851 161.554 169.851 161.554C169.851 161.554 171.399 152.634 166.973 145.638Z" fill="#FFD037"/>
<path id="Vector_39" d="M273.797 177.975C275.685 177.975 277.216 176.445 277.216 174.557C277.216 172.669 275.685 171.138 273.797 171.138C271.91 171.138 270.379 172.669 270.379 174.557C270.379 176.445 271.91 177.975 273.797 177.975Z" fill="#FC6681"/>
<path id="Vector_40" d="M281.774 214.436C283.661 214.436 285.192 212.906 285.192 211.018C285.192 209.13 283.661 207.6 281.774 207.6C279.886 207.6 278.355 209.13 278.355 211.018C278.355 212.906 279.886 214.436 281.774 214.436Z" fill="#FC6681"/>
<path id="Vector_41" d="M209.669 222.145C209.669 222.145 196.656 207.556 191.925 225.694C187.193 243.832 184.433 246.198 174.969 241.466C165.505 236.735 155.647 259.21 178.912 275.377C202.177 291.544 189.164 307.513 189.164 307.513H272.365C272.365 307.513 283.406 275.377 259.353 264.336C235.3 253.296 236.088 245.015 236.877 233.975C237.665 222.934 209.669 222.145 209.669 222.145Z" fill="#EFEFEF"/>
<path id="Vector_42" d="M198.628 216.597C198.628 216.597 252.649 287.798 234.117 307.513" stroke="#535461" stroke-width="2" stroke-miterlimit="10"/>
<path id="Vector_43" d="M184.661 242.613C184.661 242.613 197.445 253.493 218.344 247.973C239.243 242.452 234.09 228.29 234.09 228.29" stroke="#535461" stroke-width="2" stroke-miterlimit="10"/>
<path id="Vector_44" d="M272.148 277.03C272.148 277.03 244.337 263.542 230.355 268.572C193.95 281.669 166.885 246.395 166.885 246.395" stroke="#535461" stroke-width="2" stroke-miterlimit="10"/>
<path id="Vector_45" d="M191.333 306.922C191.333 306.922 208.289 294.304 186.996 250.141C186.996 250.141 158.605 215.048 186.996 181.926C186.996 181.926 125.088 183.503 126.271 241.072C127.454 298.641 157.225 306.922 157.225 306.922H191.333Z" fill="#EFEFEF"/>
<path id="Vector_46" d="M175.495 306.922C175.495 306.922 171.223 276.56 159.788 258.027C157.531 254.283 155.908 250.192 154.983 245.919C151.16 229.11 156.61 211.532 168.957 199.502L186.996 181.926" stroke="#535461" stroke-width="2" stroke-miterlimit="10"/>
<path id="Vector_47" opacity="0.1" d="M191.333 306.922C191.333 306.922 208.289 294.304 186.996 250.141C186.996 250.141 158.605 215.048 186.996 181.926C186.996 181.926 125.088 183.503 126.271 241.072C127.454 298.641 157.225 306.922 157.225 306.922H191.333Z" fill="black"/>
<path id="Vector_48" d="M343.319 306.574C343.319 306.574 285.297 293.603 359.122 217.702C359.122 217.702 390.945 247.861 379.27 285.354C374.577 300.428 359.477 309.734 344.183 306.752C343.897 306.696 343.609 306.637 343.319 306.574Z" fill="#EFEFEF"/>
<path id="Vector_49" opacity="0.4" d="M343.319 306.574C342.045 306.289 286.547 292.318 359.122 217.702C359.122 217.702 390.945 247.861 379.27 285.354C374.577 300.428 359.477 309.734 344.183 306.752C343.897 306.696 343.609 306.637 343.319 306.574Z" fill="white"/>
<path id="Vector_50" d="M344.08 307.006C344.08 307.006 374.726 260.838 359.122 217.702" stroke="#535461" stroke-miterlimit="10"/>
<path id="Vector_51" d="M103.179 306.574C103.179 306.574 45.1578 293.603 118.982 217.702C118.982 217.702 150.805 247.861 139.131 285.354C134.437 300.428 119.337 309.734 104.044 306.752C103.758 306.696 103.469 306.637 103.179 306.574Z" fill="#EFEFEF"/>
<path id="Vector_52" opacity="0.4" d="M103.179 306.574C101.905 306.289 46.4074 292.318 118.982 217.702C118.982 217.702 150.805 247.861 139.131 285.354C134.437 300.428 119.337 309.734 104.044 306.752C103.758 306.696 103.469 306.637 103.179 306.574Z" fill="white"/>
<path id="Vector_53" d="M103.941 307.006C103.941 307.006 134.587 260.838 118.982 217.702" stroke="#535461" stroke-miterlimit="10"/>
<path id="Vector_54" d="M232.91 306.574C232.91 306.574 174.888 293.603 248.713 217.702C248.713 217.702 280.536 247.861 268.861 285.354C264.168 300.428 249.068 309.734 233.774 306.752C233.488 306.696 233.2 306.637 232.91 306.574Z" fill="#EFEFEF"/>
<path id="Vector_55" opacity="0.4" d="M232.91 306.574C231.636 306.289 176.138 292.318 248.713 217.702C248.713 217.702 280.536 247.861 268.861 285.354C264.168 300.428 249.068 309.734 233.774 306.752C233.488 306.696 233.2 306.637 232.91 306.574Z" fill="white"/>
<path id="Vector_56" d="M233.671 307.006C233.671 307.006 264.318 260.838 248.713 217.702" stroke="#535461" stroke-miterlimit="10"/>
<path id="Vector_57" d="M411.141 306.574C411.141 306.574 353.12 293.603 426.944 217.702C426.944 217.702 458.768 247.861 447.093 285.354C442.399 300.428 427.299 309.734 412.006 306.752C411.72 306.696 411.431 306.637 411.141 306.574Z" fill="#EFEFEF"/>
<path id="Vector_58" opacity="0.4" d="M411.141 306.574C409.867 306.289 354.37 292.318 426.944 217.702C426.944 217.702 458.768 247.861 447.093 285.354C442.399 300.428 427.299 309.734 412.006 306.752C411.72 306.696 411.431 306.637 411.141 306.574Z" fill="white"/>
<path id="Vector_59" d="M411.903 307.006C411.903 307.006 442.549 260.838 426.944 217.702" stroke="#535461" stroke-miterlimit="10"/>
<path id="Vector_60" d="M303.098 306.574C303.098 306.574 245.077 293.603 318.901 217.702C318.901 217.702 350.725 247.861 339.05 285.354C334.356 300.428 319.256 309.734 303.963 306.752C303.677 306.696 303.388 306.637 303.098 306.574Z" fill="#EFEFEF"/>
<path id="Vector_61" opacity="0.4" d="M303.098 306.574C301.824 306.289 246.327 292.318 318.901 217.702C318.901 217.702 350.725 247.861 339.05 285.354C334.356 300.428 319.256 309.734 303.963 306.752C303.677 306.696 303.389 306.637 303.098 306.574Z" fill="white"/>
<path id="Vector_62" d="M303.86 307.006C303.86 307.006 334.506 260.838 318.901 217.702" stroke="#535461" stroke-miterlimit="10"/>
<path id="Vector_63" d="M101.236 302.04C102.949 300.742 104.556 299.21 105.049 297.346C105.303 296.359 105.169 295.312 104.673 294.422C104.177 293.532 103.358 292.867 102.385 292.564C99.9378 291.801 97.323 293.185 95.3405 294.582C93.3581 295.979 91.0861 297.574 88.4915 297.278C91.1795 295.337 92.4573 292.182 91.7161 289.317C91.5897 288.699 91.2766 288.134 90.8193 287.7C89.461 286.515 86.9986 287.024 85.3722 287.957C80.2 290.925 78.7567 296.657 78.7286 301.816C78.207 299.955 78.6463 298.016 78.6334 296.107C78.6206 294.198 77.9794 292.082 76.0056 291.057C74.8336 290.448 73.386 290.33 71.9976 290.288C69.6726 290.219 67.0831 290.409 65.4952 291.796C63.5224 293.52 64.0341 296.412 65.7504 298.31C67.4667 300.208 70.0774 301.397 72.4805 302.708C74.3119 303.707 76.1641 304.873 77.29 306.45C77.4334 306.659 77.553 306.883 77.6466 307.119H92.2222C95.4251 305.805 98.4529 304.099 101.236 302.04V302.04Z" fill="#EFEFEF"/>
<path id="Vector_64" d="M345.319 302.04C347.031 300.742 348.638 299.21 349.132 297.346C349.386 296.359 349.251 295.312 348.755 294.422C348.259 293.532 347.44 292.867 346.467 292.564C344.02 291.801 341.406 293.185 339.423 294.582C337.441 295.979 335.169 297.574 332.574 297.278C335.262 295.337 336.54 292.182 335.799 289.317C335.672 288.699 335.359 288.134 334.902 287.7C333.544 286.515 331.081 287.024 329.455 287.957C324.282 290.925 322.839 296.657 322.811 301.816C322.289 299.955 322.729 298.016 322.716 296.107C322.703 294.198 322.062 292.082 320.088 291.057C318.916 290.448 317.468 290.33 316.08 290.288C313.755 290.219 311.166 290.409 309.578 291.796C307.605 293.52 308.117 296.412 309.833 298.31C311.549 300.208 314.16 301.397 316.563 302.708C318.394 303.707 320.247 304.873 321.373 306.45C321.516 306.659 321.636 306.883 321.729 307.119H336.305C339.508 305.805 342.535 304.099 345.319 302.04V302.04Z" fill="#EFEFEF"/>
<path id="Vector_65" d="M266.899 273.664C279.647 297.305 306.702 307.453 306.702 307.453C306.702 307.453 313.089 279.273 300.341 255.632C287.594 231.992 260.539 221.843 260.539 221.843C260.539 221.843 254.151 250.024 266.899 273.664Z" fill="#3F3D56"/>
<path id="Vector_66" d="M275.661 265.887C298.676 279.733 307.54 307.235 307.54 307.235C307.54 307.235 279.089 312.288 256.074 298.442C233.06 284.596 224.196 257.094 224.196 257.094C224.196 257.094 252.646 252.041 275.661 265.887Z" fill="#EFEFEF"/>
<path id="Vector_67" d="M192.768 273.664C205.515 297.305 232.57 307.453 232.57 307.453C232.57 307.453 238.957 279.273 226.21 255.632C213.462 231.992 186.407 221.843 186.407 221.843C186.407 221.843 180.02 250.024 192.768 273.664Z" fill="#3F3D56"/>
<path id="Vector_68" d="M201.529 265.887C224.544 279.733 233.408 307.235 233.408 307.235C233.408 307.235 204.957 312.288 181.943 298.442C158.928 284.596 150.064 257.094 150.064 257.094C150.064 257.094 178.515 252.041 201.529 265.887Z" fill="#EFEFEF"/>
<path id="Vector_69" d="M116.962 193.771C94.9093 226.785 100.383 269.146 100.383 269.146C100.383 269.146 141.612 257.98 163.665 224.966C185.718 191.951 180.244 149.59 180.244 149.59C180.244 149.59 139.015 160.756 116.962 193.771Z" fill="#3F3D56"/>
<path id="Vector_70" d="M133.186 199.831C131.033 239.474 101.248 270.089 101.248 270.089C101.248 270.089 74.9527 236.429 77.1056 196.785C79.2584 157.141 109.044 126.526 109.044 126.526C109.044 126.526 135.339 160.187 133.186 199.831Z" fill="#FC6681"/>
<path id="Vector_71" d="M430.91 244.812C431.74 289.77 405.302 305.959 372.335 306.567C371.569 306.582 370.807 306.587 370.048 306.584C368.519 306.579 367.006 306.538 365.508 306.459C335.715 304.902 312.292 288.827 311.52 247.016C310.721 203.747 365.015 148.122 369.088 144.008C369.091 144.008 369.091 144.008 369.095 144.004C369.25 143.847 369.329 143.769 369.329 143.769C369.329 143.769 430.08 199.858 430.91 244.812Z" fill="#EFEFEF"/>
<path id="Vector_72" d="M370.035 299.731L391.305 268.823L370.042 303.08L370.048 306.584C368.519 306.579 367.006 306.538 365.508 306.459L367.03 261.439L367.005 261.092L367.044 261.025L367.189 256.771L344.62 223.239L367.197 253.586L367.268 254.486L368.418 220.472L348.986 185.75L368.538 214.496L369.088 144.008L369.091 143.773L369.095 144.004L369.813 199.571L388.103 177.199L369.821 204.357L369.888 234.793L386.814 205.271L369.901 239.268L369.939 256.192L394.534 215.079L369.949 262.097L370.035 299.731Z" fill="#3F3D56"/>
<path id="Vector_73" d="M338.245 244.812C339.075 289.77 312.637 305.959 279.67 306.567C278.904 306.582 278.142 306.587 277.383 306.584C275.855 306.579 274.341 306.538 272.843 306.459C243.051 304.902 219.627 288.827 218.855 247.016C218.056 203.747 272.35 148.122 276.423 144.008C276.427 144.008 276.427 144.008 276.43 144.004C276.585 143.847 276.664 143.769 276.664 143.769C276.664 143.769 337.415 199.858 338.245 244.812Z" fill="#EFEFEF"/>
<path id="Vector_74" d="M277.37 299.731L298.64 268.823L277.377 303.08L277.383 306.584C275.855 306.579 274.341 306.538 272.843 306.459L274.365 261.439L274.341 261.092L274.38 261.025L274.525 256.771L251.955 223.239L274.532 253.586L274.603 254.486L275.753 220.472L256.321 185.75L275.873 214.496L276.423 144.008L276.426 143.773L276.43 144.004L277.148 199.571L295.438 177.199L277.156 204.357L277.223 234.793L294.149 205.271L277.236 239.268L277.274 256.192L301.87 215.079L277.284 262.097L277.37 299.731Z" fill="#3F3D56"/>
<path id="Vector_75" d="M449.048 245.601C449.878 290.559 423.44 306.747 390.473 307.356C389.707 307.37 388.945 307.376 388.186 307.373C386.658 307.368 385.145 307.326 383.647 307.248C353.854 305.69 330.43 289.616 329.658 247.805C328.859 204.536 383.153 148.911 387.226 144.797C387.23 144.797 387.23 144.797 387.233 144.793C387.388 144.636 387.467 144.558 387.467 144.558C387.467 144.558 448.218 200.647 449.048 245.601Z" fill="#3F3D56"/>
<path id="Vector_76" d="M388.173 300.519L409.443 269.612L388.18 303.869L388.186 307.373C386.658 307.368 385.145 307.326 383.647 307.248L385.168 262.228L385.144 261.88L385.183 261.814L385.328 257.56L362.759 224.027L385.335 254.375L385.407 255.275L386.556 221.261L367.124 186.538L386.677 215.285L387.226 144.797L387.229 144.562L387.233 144.793L387.951 200.359L406.241 177.988L387.959 205.146L388.026 235.582L404.953 206.06L388.039 240.057L388.077 256.981L412.673 215.867L388.087 262.885L388.173 300.519Z" fill="#FC6681"/>
<path id="Vector_77" d="M119.398 244.812C120.228 289.77 93.7906 305.959 60.8234 306.567C60.0577 306.582 59.2954 306.587 58.5367 306.584C57.0082 306.579 55.495 306.538 53.997 306.459C24.2041 304.902 0.780681 288.827 0.00872895 247.016C-0.790159 203.747 53.5036 148.122 57.5765 144.008C57.5801 144.008 57.5801 144.008 57.5837 144.004C57.7385 143.847 57.8177 143.769 57.8177 143.769C57.8177 143.769 118.568 199.858 119.398 244.812Z" fill="#EFEFEF"/>
<path id="Vector_78" d="M58.5238 299.731L79.7933 268.823L58.5306 303.08L58.5367 306.584C57.0082 306.579 55.495 306.538 53.997 306.459L55.5188 261.439L55.4941 261.092L55.5331 261.025L55.6782 256.771L33.1089 223.239L55.6853 253.586L55.7569 254.486L56.9065 220.472L37.4745 185.75L57.027 214.496L57.5765 144.008L57.5795 143.773L57.5837 144.004L58.3018 199.571L76.5917 177.199L58.3095 204.357L58.3767 234.793L75.3031 205.271L58.3897 239.268L58.4273 256.192L83.0232 215.079L58.4374 262.097L58.5238 299.731Z" fill="#3F3D56"/>
<path id="Vector_79" d="M362.026 313.423C347.837 311.019 334.192 308.955 321.09 307.23L326.27 297.188C324.523 296.581 316.85 302.332 316.85 302.332L323.647 273.182C314.863 274.241 310.397 304.005 310.397 304.005L300.583 293.942L305.334 305.255C265.234 300.533 230.603 298.782 201.473 298.719L205.907 290.124C204.16 289.518 196.487 295.268 196.487 295.268L203.284 266.119C194.5 267.178 190.034 296.942 190.034 296.942L180.22 286.879L185.252 298.861C160.832 299.35 140.918 301.017 125.547 302.917C130.031 289.527 145.263 276.793 145.263 276.793C133.63 280.253 127.528 286.05 124.34 291.455C124.055 263.828 128.649 236.367 137.91 210.337C137.91 210.337 113.866 262.659 116.934 297.779L117.301 304.016C96.9163 306.935 86.668 309.971 86.668 309.971L362.026 313.423Z" fill="#3F3D56"/>
<path id="Vector_80" d="M408.161 311.057C393.973 308.653 380.327 306.589 367.225 304.864L372.405 294.822C370.658 294.215 362.985 299.966 362.985 299.966L369.782 270.816C360.998 271.875 356.532 301.639 356.532 301.639L346.718 291.576L351.469 302.89C311.369 298.167 276.738 296.416 247.609 296.353L252.042 287.758C250.295 287.152 242.622 292.903 242.622 292.903L249.419 263.753C240.635 264.812 236.169 294.576 236.169 294.576L226.355 284.513L231.387 296.496C206.967 296.984 187.053 298.651 171.682 300.551C176.166 287.162 191.398 274.427 191.398 274.427C179.766 277.887 173.664 283.684 170.475 289.089C170.19 261.462 174.784 234.001 184.045 207.971C184.045 207.971 160.001 260.293 163.069 295.414L163.436 301.65C143.052 304.569 132.803 307.605 132.803 307.605L408.161 311.057Z" fill="#3F3D56"/>
<path id="Vector_81" d="M461 315C446.811 312.596 433.166 310.532 420.064 308.807L425.243 298.765C423.497 298.158 415.824 303.909 415.824 303.909L422.621 274.759C413.837 275.818 409.371 305.582 409.371 305.582L399.557 295.519L404.308 306.833C364.208 302.11 329.576 300.36 300.447 300.296L304.88 291.701C303.134 291.095 295.46 296.846 295.46 296.846L302.258 267.696C293.474 268.755 289.008 298.519 289.008 298.519L279.194 288.456L284.226 300.439C259.806 300.927 239.892 302.594 224.521 304.494C229.005 291.105 244.237 278.37 244.237 278.37C232.604 281.83 226.502 287.627 223.314 293.032C223.029 265.405 227.623 237.944 236.884 211.914C236.884 211.914 212.84 264.236 215.908 299.357L216.275 305.593C195.89 308.512 185.642 311.548 185.642 311.548L461 315Z" fill="#3F3D56"/>
<path id="Vector_82" d="M286.317 311.057C272.128 308.653 258.483 306.589 245.381 304.864L250.561 294.822C248.814 294.215 241.141 299.966 241.141 299.966L247.938 270.816C239.154 271.875 234.688 301.639 234.688 301.639L224.874 291.576L229.625 302.89C189.525 298.167 154.894 296.416 125.764 296.353L130.198 287.758C128.451 287.152 120.778 292.903 120.778 292.903L127.575 263.753C118.791 264.812 114.325 294.576 114.325 294.576L104.511 284.513L109.543 296.496C85.123 296.984 65.2088 298.651 49.838 300.551C54.3219 287.162 69.5542 274.427 69.5542 274.427C57.9214 277.887 51.8194 283.684 48.6309 289.089C48.3459 261.462 52.9399 234.001 62.2012 207.971C62.2012 207.971 38.1567 260.293 41.2247 295.414L41.5917 301.65C21.2073 304.569 10.959 307.605 10.959 307.605L286.317 311.057Z" fill="#3F3D56"/>
</g>
<defs>
<clipPath id="clip0">
<rect width="461" height="315" fill="white"/>
</clipPath>
</defs>
</svg>
