<svg width="477" height="367" viewBox="0 0 477 367" fill="none" xmlns="http://www.w3.org/2000/svg">
<path d="M371.077 188.413C340.893 165.863 293.617 144.536 241.372 129.903C193.803 116.578 147.406 110.145 110.717 111.788L110.526 107.524C147.652 105.863 194.531 112.35 242.525 125.793C295.257 140.563 343.045 162.141 373.634 184.994L371.077 188.413Z" fill="#EB9DAC"/>
<path d="M367.943 205.782C367.97 225.761 363.779 245.521 355.643 263.771C354.964 265.299 354.257 266.813 353.521 268.312C339.37 297.275 315.818 320.592 286.703 334.46C257.589 348.328 224.632 351.929 193.208 344.674C161.783 337.42 133.745 319.739 113.667 294.515C93.5898 269.291 82.657 238.013 82.6523 205.782C82.6523 202.483 82.7648 199.209 82.9897 195.961C83.0965 194.31 83.2346 192.668 83.4041 191.036C87.1869 154.703 104.782 121.207 132.559 97.4615C160.335 73.7155 196.174 61.5312 232.678 63.423C269.183 65.3148 303.568 81.1383 328.738 107.628C353.908 134.118 367.941 169.253 367.943 205.782V205.782Z" fill="#F9F9F9"/>
<path opacity="0.1" d="M355.643 263.771C354.964 265.299 354.257 266.813 353.521 268.312C349.352 268.765 344.965 269.093 340.358 269.298C336.544 269.469 332.619 269.554 328.609 269.554C293.58 269.554 251.422 263.092 208.355 251.031C160.36 237.587 116.939 218.782 86.0861 198.078C85.0355 197.374 84.0033 196.668 82.9897 195.961C83.0965 194.31 83.2347 192.668 83.4041 191.036C85.0398 192.201 86.7268 193.368 88.465 194.536C118.954 214.992 161.94 233.596 209.509 246.921C252.2 258.88 293.96 265.286 328.588 265.286C332.547 265.286 336.406 265.202 340.166 265.034C345.641 264.787 350.8 264.366 355.643 263.771Z" fill="#EB9DAC"/>
<path d="M328.61 266.141C293.581 266.141 251.422 259.679 208.357 247.617C160.362 234.173 116.938 215.368 86.0856 194.664C54.5889 173.529 39.8195 152.703 44.4978 136.023C49.1759 119.343 72.6251 109.222 110.526 107.524L110.717 111.788C93.0176 112.581 78.5936 115.21 67.8455 119.602C57.1234 123.983 50.6516 129.896 48.6101 137.175C46.5685 144.454 49.0226 152.866 55.9039 162.179C62.802 171.513 73.7576 181.251 88.4663 191.121C118.952 211.578 161.94 230.183 209.509 243.507C252.202 255.465 293.958 261.873 328.589 261.873C332.546 261.873 336.404 261.789 340.165 261.621C357.864 260.829 372.288 258.2 383.036 253.808C393.758 249.426 400.23 243.514 402.272 236.235C405.937 223.164 394.859 206.181 371.077 188.413L373.634 184.995C385.872 194.138 394.932 203.15 400.56 211.781C406.595 221.035 408.554 229.65 406.384 237.387C401.706 254.067 378.256 264.187 340.356 265.885C336.542 266.056 332.62 266.141 328.61 266.141Z" fill="#EB9DAC"/>
<path d="M229.071 37.5226C229.974 37.5226 230.706 36.7912 230.706 35.8891C230.706 34.9869 229.974 34.2556 229.071 34.2556C228.169 34.2556 227.437 34.9869 227.437 35.8891C227.437 36.7912 228.169 37.5226 229.071 37.5226Z" fill="#F9F9F9"/>
<path d="M12.2176 108.405C13.7706 108.405 15.0296 107.147 15.0296 105.595C15.0296 104.043 13.7706 102.785 12.2176 102.785C10.6645 102.785 9.40552 104.043 9.40552 105.595C9.40552 107.147 10.6645 108.405 12.2176 108.405Z" fill="#EB9DAC"/>
<path d="M6.22406 221.134C9.29206 221.134 11.7792 218.649 11.7792 215.583C11.7792 212.517 9.29206 210.032 6.22406 210.032C3.15606 210.032 0.668945 212.517 0.668945 215.583C0.668945 218.649 3.15606 221.134 6.22406 221.134Z" fill="#EB9DAC"/>
<path d="M339.678 49.3899C341.723 49.3899 343.38 47.7334 343.38 45.69C343.38 43.6466 341.723 41.9901 339.678 41.9901C337.633 41.9901 335.976 43.6466 335.976 45.69C335.976 47.7334 337.633 49.3899 339.678 49.3899Z" fill="#EB9DAC"/>
<path d="M470.989 205.255C474.309 205.255 477 202.566 477 199.248C477 195.93 474.309 193.241 470.989 193.241C467.669 193.241 464.978 195.93 464.978 199.248C464.978 202.566 467.669 205.255 470.989 205.255Z" fill="#EB9DAC"/>
<path d="M423.984 105.881C425.409 105.881 426.563 104.727 426.563 103.304C426.563 101.88 425.409 100.726 423.984 100.726C422.56 100.726 421.405 101.88 421.405 103.304C421.405 104.727 422.56 105.881 423.984 105.881Z" fill="#EB9DAC"/>
<path d="M110.837 74.2131C113.059 74.2131 114.86 72.4129 114.86 70.1923C114.86 67.9717 113.059 66.1716 110.837 66.1716C108.615 66.1716 106.813 67.9717 106.813 70.1923C106.813 72.4129 108.615 74.2131 110.837 74.2131Z" fill="#EB9DAC"/>
<path d="M414.957 189.645C416.382 189.645 417.537 188.491 417.537 187.067C417.537 185.644 416.382 184.49 414.957 184.49C413.533 184.49 412.378 185.644 412.378 187.067C412.378 188.491 413.533 189.645 414.957 189.645Z" fill="#EB9DAC"/>
<path d="M19.3006 297.198C21.0735 297.198 22.5106 295.762 22.5106 293.99C22.5106 292.219 21.0735 290.783 19.3006 290.783C17.5278 290.783 16.0906 292.219 16.0906 293.99C16.0906 295.762 17.5278 297.198 19.3006 297.198Z" fill="#EB9DAC"/>
<path d="M84.1388 342.113C86.0587 342.113 87.6151 340.558 87.6151 338.639C87.6151 336.72 86.0587 335.165 84.1388 335.165C82.219 335.165 80.6626 336.72 80.6626 338.639C80.6626 340.558 82.219 342.113 84.1388 342.113Z" fill="#EB9DAC"/>
<path d="M344.324 359.798H340.015V355.494H337.704V359.798H333.397V362.108H337.704V366.412H340.015V362.108H344.324V359.798Z" fill="#EB9DAC"/>
<path d="M443.744 337.765H440.524V334.547H438.795V337.765H435.575V339.493H438.795V342.711H440.524V339.493H443.744V337.765Z" fill="#EB9DAC"/>
<path opacity="0.1" d="M227.437 106.139C234.057 106.139 239.424 100.776 239.424 94.1604C239.424 87.5446 234.057 82.1815 227.437 82.1815C220.817 82.1815 215.45 87.5446 215.45 94.1604C215.45 100.776 220.817 106.139 227.437 106.139Z" fill="#EB9DAC"/>
<path opacity="0.1" d="M135.356 193.803C141.976 193.803 147.342 188.44 147.342 181.824C147.342 175.208 141.976 169.845 135.356 169.845C128.735 169.845 123.369 175.208 123.369 181.824C123.369 188.44 128.735 193.803 135.356 193.803Z" fill="#EB9DAC"/>
<path opacity="0.1" d="M267.756 314.137C274.377 314.137 279.743 308.774 279.743 302.158C279.743 295.542 274.377 290.179 267.756 290.179C261.136 290.179 255.77 295.542 255.77 302.158C255.77 308.774 261.136 314.137 267.756 314.137Z" fill="#EB9DAC"/>
<path opacity="0.1" d="M227.437 212.316C234.057 212.316 239.424 206.953 239.424 200.337C239.424 193.721 234.057 188.358 227.437 188.358C220.817 188.358 215.45 193.721 215.45 200.337C215.45 206.953 220.817 212.316 227.437 212.316Z" fill="#EB9DAC"/>
<path opacity="0.1" d="M141.349 278.2C147.969 278.2 153.336 272.837 153.336 266.221C153.336 259.605 147.969 254.242 141.349 254.242C134.729 254.242 129.362 259.605 129.362 266.221C129.362 272.837 134.729 278.2 141.349 278.2Z" fill="#EB9DAC"/>
<path opacity="0.1" d="M291.73 148.065C298.35 148.065 303.717 142.702 303.717 136.087C303.717 129.471 298.35 124.108 291.73 124.108C285.11 124.108 279.743 129.471 279.743 136.087C279.743 142.702 285.11 148.065 291.73 148.065Z" fill="#EB9DAC"/>
<path opacity="0.1" d="M331.505 229.195C338.125 229.195 343.492 223.832 343.492 217.216C343.492 210.601 338.125 205.238 331.505 205.238C324.885 205.238 319.518 210.601 319.518 217.216C319.518 223.832 324.885 229.195 331.505 229.195Z" fill="#EB9DAC"/>
<path d="M227.437 163.856C236.163 163.856 243.238 156.786 243.238 148.065C243.238 139.345 236.163 132.275 227.437 132.275C218.71 132.275 211.636 139.345 211.636 148.065C211.636 156.786 218.71 163.856 227.437 163.856Z" fill="#F9F9F9"/>
<path d="M227.437 125.197C221.512 125.197 215.83 127.549 211.641 131.735C207.451 135.922 205.098 141.6 205.098 147.521C205.098 159.85 227.437 200.337 227.437 200.337C227.437 200.337 249.776 159.85 249.776 147.521C249.776 141.6 247.422 135.922 243.233 131.735C239.044 127.549 233.362 125.197 227.437 125.197ZM227.437 158.411C225.389 158.411 223.388 157.804 221.685 156.667C219.983 155.531 218.656 153.915 217.873 152.024C217.089 150.134 216.884 148.054 217.283 146.047C217.683 144.04 218.669 142.197 220.117 140.75C221.564 139.303 223.409 138.318 225.417 137.919C227.425 137.52 229.507 137.724 231.399 138.507C233.29 139.291 234.907 140.617 236.045 142.318C237.182 144.019 237.789 146.019 237.789 148.065C237.789 149.424 237.521 150.769 237.001 152.024C236.481 153.28 235.718 154.42 234.757 155.381C233.796 156.341 232.655 157.103 231.399 157.623C230.143 158.143 228.796 158.411 227.437 158.411V158.411Z" fill="#EB9DAC"/>
<path d="M141.349 231.373C150.076 231.373 157.15 224.304 157.15 215.583C157.15 206.862 150.076 199.793 141.349 199.793C132.622 199.793 125.548 206.862 125.548 215.583C125.548 224.304 132.622 231.373 141.349 231.373Z" fill="#F9F9F9"/>
<path d="M141.349 192.714C135.424 192.714 129.742 195.066 125.553 199.253C121.364 203.439 119.01 209.118 119.01 215.038C119.01 227.368 141.349 267.854 141.349 267.854C141.349 267.854 163.688 227.368 163.688 215.038C163.688 212.107 163.111 209.204 161.988 206.495C160.865 203.787 159.22 201.326 157.145 199.253C155.071 197.18 152.608 195.535 149.898 194.413C147.188 193.292 144.283 192.714 141.349 192.714ZM141.349 225.928C139.302 225.928 137.3 225.322 135.598 224.185C133.895 223.048 132.568 221.432 131.785 219.542C131.001 217.652 130.796 215.571 131.196 213.565C131.595 211.558 132.581 209.714 134.029 208.268C135.477 206.821 137.321 205.835 139.33 205.436C141.338 205.037 143.419 205.242 145.311 206.025C147.203 206.808 148.819 208.134 149.957 209.835C151.094 211.537 151.702 213.537 151.702 215.583C151.702 216.942 151.434 218.287 150.913 219.542C150.393 220.797 149.631 221.938 148.669 222.898C147.708 223.859 146.567 224.621 145.311 225.141C144.055 225.661 142.709 225.928 141.349 225.928V225.928Z" fill="#EB9DAC"/>
<path d="M331.505 182.369C340.231 182.369 347.306 175.299 347.306 166.578C347.306 157.858 340.231 150.788 331.505 150.788C322.778 150.788 315.704 157.858 315.704 166.578C315.704 175.299 322.778 182.369 331.505 182.369Z" fill="#F9F9F9"/>
<path d="M331.505 143.709C328.571 143.709 325.666 144.287 322.956 145.409C320.246 146.531 317.783 148.175 315.709 150.248C313.634 152.321 311.989 154.782 310.866 157.491C309.744 160.199 309.166 163.102 309.166 166.034C309.166 178.363 331.505 218.85 331.505 218.85C331.505 218.85 353.844 178.363 353.844 166.034C353.844 163.102 353.266 160.199 352.144 157.491C351.021 154.782 349.375 152.321 347.301 150.248C345.227 148.175 342.764 146.531 340.054 145.409C337.343 144.287 334.439 143.709 331.505 143.709ZM331.505 176.924C329.457 176.924 327.456 176.317 325.754 175.18C324.051 174.043 322.724 172.428 321.941 170.537C321.157 168.647 320.952 166.567 321.352 164.56C321.751 162.553 322.737 160.71 324.185 159.263C325.633 157.816 327.477 156.831 329.485 156.432C331.494 156.032 333.575 156.237 335.467 157.02C337.358 157.803 338.975 159.129 340.113 160.831C341.25 162.532 341.857 164.532 341.857 166.578C341.857 167.937 341.59 169.282 341.069 170.537C340.549 171.792 339.786 172.933 338.825 173.894C337.864 174.854 336.723 175.616 335.467 176.136C334.211 176.656 332.864 176.924 331.505 176.924V176.924Z" fill="#EB9DAC"/>
<path d="M227.437 57.6791C236.163 57.6791 243.238 50.6095 243.238 41.8887C243.238 33.168 236.163 26.0984 227.437 26.0984C218.71 26.0984 211.636 33.168 211.636 41.8887C211.636 50.6095 218.71 57.6791 227.437 57.6791Z" fill="#F9F9F9"/>
<path d="M227.437 19.02C221.512 19.02 215.83 21.372 211.641 25.5586C207.451 29.7452 205.098 35.4235 205.098 41.3442C205.098 53.6736 227.437 94.1603 227.437 94.1603C227.437 94.1603 249.776 53.6736 249.776 41.3442C249.776 35.4235 247.422 29.7452 243.233 25.5586C239.044 21.372 233.362 19.02 227.437 19.02V19.02ZM227.437 52.2342C225.389 52.2342 223.388 51.6274 221.685 50.4907C219.983 49.3539 218.656 47.7382 217.873 45.8478C217.089 43.9574 216.884 41.8773 217.283 39.8704C217.683 37.8636 218.669 36.0202 220.117 34.5734C221.564 33.1266 223.409 32.1413 225.417 31.7421C227.425 31.3429 229.507 31.5478 231.399 32.3308C233.29 33.1138 234.907 34.4398 236.045 36.1411C237.182 37.8424 237.789 39.8426 237.789 41.8888C237.789 43.2473 237.521 44.5926 237.001 45.8478C236.481 47.103 235.718 48.2434 234.757 49.2041C233.796 50.1648 232.655 50.9268 231.399 51.4467C230.143 51.9666 228.796 52.2342 227.437 52.2342V52.2342Z" fill="#EB9DAC"/>
<path d="M267.756 267.31C276.483 267.31 283.557 260.24 283.557 251.52C283.557 242.799 276.483 235.729 267.756 235.729C259.03 235.729 251.956 242.799 251.956 251.52C251.956 260.24 259.03 267.31 267.756 267.31Z" fill="#F9F9F9"/>
<path d="M267.756 228.651C261.832 228.651 256.15 231.003 251.96 235.189C247.771 239.376 245.417 245.054 245.417 250.975C245.417 263.305 267.756 303.791 267.756 303.791C267.756 303.791 290.096 263.305 290.096 250.975C290.096 248.043 289.518 245.141 288.395 242.432C287.272 239.723 285.627 237.262 283.553 235.189C281.478 233.116 279.016 231.472 276.305 230.35C273.595 229.228 270.69 228.651 267.756 228.651V228.651ZM267.756 261.865C265.709 261.865 263.707 261.258 262.005 260.122C260.303 258.985 258.976 257.369 258.192 255.479C257.409 253.588 257.204 251.508 257.603 249.501C258.002 247.495 258.988 245.651 260.436 244.204C261.884 242.757 263.729 241.772 265.737 241.373C267.745 240.974 269.826 241.179 271.718 241.962C273.61 242.745 275.227 244.071 276.364 245.772C277.502 247.473 278.109 249.474 278.109 251.52C278.109 252.878 277.841 254.224 277.321 255.479C276.8 256.734 276.038 257.874 275.077 258.835C274.115 259.796 272.974 260.558 271.718 261.078C270.462 261.598 269.116 261.865 267.756 261.865V261.865Z" fill="#7773A7"/>
<path d="M135.356 145.887C144.082 145.887 151.157 138.818 151.157 130.097C151.157 121.376 144.082 114.307 135.356 114.307C126.629 114.307 119.555 121.376 119.555 130.097C119.555 138.818 126.629 145.887 135.356 145.887Z" fill="#F9F9F9"/>
<path d="M135.356 107.228C129.431 107.228 123.749 109.58 119.56 113.767C115.37 117.954 113.017 123.632 113.017 129.553C113.017 141.882 135.356 182.369 135.356 182.369C135.356 182.369 157.695 141.882 157.695 129.553C157.695 123.632 155.341 117.954 151.152 113.767C146.963 109.58 141.28 107.228 135.356 107.228ZM135.356 140.443C133.308 140.443 131.307 139.836 129.604 138.699C127.902 137.562 126.575 135.946 125.791 134.056C125.008 132.166 124.803 130.086 125.202 128.079C125.602 126.072 126.588 124.229 128.036 122.782C129.483 121.335 131.328 120.35 133.336 119.95C135.344 119.551 137.426 119.756 139.317 120.539C141.209 121.322 142.826 122.648 143.963 124.349C145.101 126.051 145.708 128.051 145.708 130.097C145.708 131.456 145.44 132.801 144.92 134.056C144.4 135.311 143.637 136.452 142.676 137.412C141.715 138.373 140.573 139.135 139.317 139.655C138.061 140.175 136.715 140.443 135.356 140.443Z" fill="#7773A7"/>
<path d="M291.73 101.783C300.457 101.783 307.531 94.7137 307.531 85.9929C307.531 77.2721 300.457 70.2025 291.73 70.2025C283.004 70.2025 275.929 77.2721 275.929 85.9929C275.929 94.7137 283.004 101.783 291.73 101.783Z" fill="#F9F9F9"/>
<path d="M291.73 63.1241C285.806 63.1241 280.123 65.4762 275.934 69.6628C271.745 73.8494 269.391 79.5277 269.391 85.4484C269.391 97.7778 291.73 138.265 291.73 138.265C291.73 138.265 314.069 97.7778 314.069 85.4484C314.069 79.5277 311.716 73.8494 307.526 69.6628C303.337 65.4762 297.655 63.1241 291.73 63.1241V63.1241ZM291.73 96.3384C289.683 96.3384 287.681 95.7316 285.979 94.5949C284.276 93.4581 282.95 91.8423 282.166 89.952C281.382 88.0616 281.177 85.9815 281.577 83.9747C281.976 81.9678 282.962 80.1244 284.41 78.6776C285.858 77.2308 287.702 76.2455 289.711 75.8463C291.719 75.4471 293.8 75.652 295.692 76.435C297.584 77.218 299.2 78.544 300.338 80.2453C301.475 81.9466 302.083 83.9468 302.083 85.9929C302.083 88.7367 300.992 91.3681 299.05 93.3083C297.109 95.2484 294.476 96.3384 291.73 96.3383V96.3383V96.3384Z" fill="#7773A7"/>
</svg>
